<?xml version="1.0" encoding="utf-8"?>
<!-- Generator: Adobe Illustrator 22.1.0, SVG Export Plug-In . SVG Version: 6.00 Build 0)  -->
<svg version="1.1" id="Calque_1" xmlns="http://www.w3.org/2000/svg" xmlns:xlink="http://www.w3.org/1999/xlink" x="0px" y="0px"
	 viewBox="0 0 30.6 30.8" style="enable-background:new 0 0 30.6 30.8;" xml:space="preserve">
<style type="text/css">
	.st0{fill:#FD5959;}
</style>
<path class="st0" d="M15.3,0.3c-8.3,0-15,6.7-15,15s6.7,15,15,15s15-6.7,15-15S23.5,0.3,15.3,0.3z M15.3,4.8c2.5,0,4.5,2,4.5,4.5
	s-2,4.5-4.5,4.5s-4.5-2-4.5-4.5S12.8,4.8,15.3,4.8z M15.3,26.1c-3.8,0-7.1-1.9-9-4.8c0-3,6-4.6,9-4.6c3,0,9,1.6,9,4.6
	C22.3,24.1,19,26.1,15.3,26.1z"/>
</svg>
