<?xml version="1.0" encoding="utf-8"?>
<!-- Generator: Adobe Illustrator 22.0.1, SVG Export Plug-In . SVG Version: 6.00 Build 0)  -->
<svg version="1.1" id="Calque_1" xmlns="http://www.w3.org/2000/svg" xmlns:xlink="http://www.w3.org/1999/xlink" x="0px" y="0px"
	 viewBox="0 0 1460.8 398.9" style="enable-background:new 0 0 1460.8 398.9;" xml:space="preserve">
<style type="text/css">
	.st0{fill:#FD5959;}
	.st1{fill:#FFFFFF;}
	.st2{fill:#E6E6E6;}
	.st3{fill:url(#SVGID_1_);}
</style>
<circle class="st0" cx="164.9" cy="161.3" r="151.2"/>
<path class="st1" d="M165.4,69.9c-39.1,0-70.8,31.8-70.8,70.8c0,21.1,13.1,50.7,25.4,71.5c7.9,13.3,28.1,44.2,45.4,44.2
	s37.5-30.9,45.4-44.2c12.3-20.7,25.4-50.4,25.4-71.5C236.2,101.7,204.5,69.9,165.4,69.9z"/>
<path class="st2" d="M210.8,212.2c12.3-20.7,25.4-50.4,25.4-71.5c0-39.1-31.8-70.8-70.8-70.8v186.5
	C182.7,256.5,202.9,225.5,210.8,212.2z"/>
<linearGradient id="SVGID_1_" gradientUnits="userSpaceOnUse" x1="129.6568" y1="140.1745" x2="201.1182" y2="140.1745">
	<stop  offset="0" style="stop-color:#000000;stop-opacity:0.2"/>
	<stop  offset="1.471144e-02" style="stop-color:#0B0B0B;stop-opacity:0.2074"/>
	<stop  offset="9.000170e-02" style="stop-color:#3D3D3D;stop-opacity:0.245"/>
	<stop  offset="0.1708" style="stop-color:#6C6C6C;stop-opacity:0.2854"/>
	<stop  offset="0.2551" style="stop-color:#939393;stop-opacity:0.3276"/>
	<stop  offset="0.344" style="stop-color:#B5B5B5;stop-opacity:0.372"/>
	<stop  offset="0.4386" style="stop-color:#D0D0D0;stop-opacity:0.4193"/>
	<stop  offset="0.541" style="stop-color:#E5E5E5;stop-opacity:0.4705"/>
	<stop  offset="0.655" style="stop-color:#F4F4F4;stop-opacity:0.5275"/>
	<stop  offset="0.7901" style="stop-color:#FCFCFC;stop-opacity:0.5951"/>
	<stop  offset="1" style="stop-color:#FFFFFF;stop-opacity:0.7"/>
</linearGradient>
<circle class="st3" cx="165.4" cy="140.2" r="35.7"/>
<circle class="st0" cx="165.4" cy="140.2" r="21.8"/>
<path class="st0" d="M490.8,285.3c-11.1,18.9-34.5,27.1-55.8,27.1c-48.9,0-76.8-35.7-76.8-79.7V132.4c0-15.1,12.2-27.3,27.3-27.3h0
	c15.1,0,27.3,12.2,27.3,27.3v89.3c0,22.6,11.5,40.7,37,40.7c24.2,0,38.2-16.4,38.2-39.8v-90.1c0-15.1,12.2-27.3,27.3-27.3h0
	c15.1,0,27.3,12.2,27.3,27.3v138.2c0,5.3,0.1,8.7,0.4,14.6c0.6,14.8-11.3,27-26,27h0c-14.4,0-26.1-11.7-26.1-26L490.8,285.3z"/>
<path class="st0" d="M613,7.4c18.9,0,33.7,15.2,33.7,34.1c0,18.1-14.8,33.3-33.7,33.3c-18.5,0-33.7-15.2-33.7-33.3
	C579.3,22.5,594.5,7.4,613,7.4z M585.9,284.8V132.4c0-15.1,12.2-27.3,27.3-27.3h0c15.1,0,27.3,12.2,27.3,27.3v152.4
	c0,15.1-12.2,27.3-27.3,27.3h0C598.1,312.1,585.9,299.9,585.9,284.8z"/>
<path class="st0" d="M683.8,357.8V129.7c0-13.6,11-24.6,24.6-24.6h3.7c13.6,0,24.6,11,24.6,24.6v0c9-15.6,31.6-29.2,62-29.2
	c59.1,0,93.2,45.2,93.2,105.1c0,61.2-38.2,106.4-95.3,106.4c-27.9,0-48.5-11.1-58.3-24.6v70.4c0,15.1-12.2,27.3-27.3,27.3l0,0
	C696,385.1,683.8,372.9,683.8,357.8z M788.1,149.4c-27.9,0-50.5,20.9-50.5,56.7c0,35.7,22.6,57.1,50.5,57.1
	c27.9,0,50.1-20.9,50.1-57.1C838.2,170.4,816,149.4,788.1,149.4z"/>
<path class="st0" d="M964.7,7.4c18.9,0,33.7,15.2,33.7,34.1c0,18.1-14.8,33.3-33.7,33.3c-18.5,0-33.7-15.2-33.7-33.3
	C931,22.5,946.2,7.4,964.7,7.4z M937.6,284.8V132.4c0-15.1,12.2-27.3,27.3-27.3h0c15.1,0,27.3,12.2,27.3,27.3v152.4
	c0,15.1-12.2,27.3-27.3,27.3h0C949.8,312.1,937.6,299.9,937.6,284.8z"/>
<path class="st0" d="M1089.9,206.1c0,36.5,23.8,57.1,51.7,57.1c18.4,0,30.7-8,38.3-17.9c6.8-8.9,18.2-12.8,28.8-9.3l0,0
	c16.8,5.6,22.8,25.9,12.2,40c-15.9,21-42.4,37.3-79.2,37.3c-59.5,0-106.4-45.2-106.4-107.2c0-62.4,46-107.2,104.7-107.2
	c38.7,0,65.6,16.8,81.1,38.6c9.8,13.8,2.9,33.2-13.1,38.6l-0.9,0.3c-10.8,3.6-22.4-0.5-29.2-9.7c-7.3-9.9-18.9-17.3-36.7-17.3
	C1113.3,149.4,1089.9,169.5,1089.9,206.1z"/>
<path class="st0" d="M1386.3,190.1l56.3,81.3c12.1,17.1-0.2,40.7-21.1,40.7h-3.6c-8.5,0-16.4-4.2-21.2-11.1l-48.2-71.1l-22.6,23.8
	v31.1c0,15.1-12.2,27.3-27.3,27.3l0,0c-15.1,0-27.3-12.2-27.3-27.3V37.1c0-15.1,12.2-27.3,27.3-27.3l0,0c15.1,0,27.3,12.2,27.3,27.3
	v143.1l62.2-66.9c4.9-5.3,11.7-8.2,18.9-8.2h0c22.7,0,34.3,27.2,18.7,43.6L1386.3,190.1z"/>
</svg>
