<?xml version="1.0" encoding="utf-8"?>
<!-- Generator: Adobe Illustrator 22.0.1, SVG Export Plug-In . SVG Version: 6.00 Build 0)  -->
<svg version="1.1" id="Calque_1" xmlns="http://www.w3.org/2000/svg" xmlns:xlink="http://www.w3.org/1999/xlink" x="0px" y="0px"
	 viewBox="0 0 30.9 196.6" style="enable-background:new 0 0 30.9 196.6;" xml:space="preserve">
<style type="text/css">
	.st0{fill:#EB5B5D;}
	.st1{fill:#FFFFFF;}
	.st2{display:none;fill:#61B987;}
	.st3{display:none;fill:#FFFFFF;}
	.st4{display:none;fill:#2DABE3;}
	.st5{display:none;fill:#FDC53C;}
</style>
<path class="st0" d="M16.1,166.2c-6.2,0-11.3,5-11.3,11.3c0,3.3,2.1,8.1,4,11.3c1.3,2.1,4.5,7,7.2,7s6-4.9,7.2-7c2-3.3,4-8,4-11.3
	C27.4,171.3,22.4,166.2,16.1,166.2z"/>
<circle class="st1" cx="16.1" cy="177.4" r="3.5"/>
<path class="st2" d="M16.1,166.2c-6.2,0-11.3,5-11.3,11.3c0,3.3,2.1,8.1,4,11.3c1.3,2.1,4.5,7,7.2,7s6-4.9,7.2-7c2-3.3,4-8,4-11.3
	C27.4,171.3,22.4,166.2,16.1,166.2z"/>
<circle class="st3" cx="16.1" cy="177.4" r="3.5"/>
<path class="st4" d="M16.1,166.3c-6.2,0-11.3,5-11.3,11.3c0,3.3,2.1,8.1,4,11.3c1.3,2.1,4.5,7,7.2,7s6-4.9,7.2-7c2-3.3,4-8,4-11.3
	C27.3,171.4,22.3,166.3,16.1,166.3z"/>
<circle class="st3" cx="16.1" cy="177.5" r="3.5"/>
<path class="st5" d="M16.1,165.7c-6.2,0-11.3,5-11.3,11.3c0,3.3,2.1,8.1,4,11.3c1.3,2.1,4.5,7,7.2,7s6-4.9,7.2-7c2-3.3,4-8,4-11.3
	C27.3,170.8,22.3,165.7,16.1,165.7z"/>
<circle class="st3" cx="16.1" cy="177.2" r="3.5"/>
</svg>
