<?xml version="1.0" encoding="utf-8"?>
<!-- Generator: Adobe Illustrator 22.0.1, SVG Export Plug-In . SVG Version: 6.00 Build 0)  -->
<svg version="1.1" id="Calque_1" xmlns="http://www.w3.org/2000/svg" xmlns:xlink="http://www.w3.org/1999/xlink" x="0px" y="0px"
	 viewBox="0 0 26.1 171.2" style="enable-background:new 0 0 26.1 171.2;" xml:space="preserve">
<style type="text/css">
	.st0{display:none;fill:#EB5B5D;}
	.st1{display:none;fill:#FFFFFF;}
	.st2{fill:#61B987;}
	.st3{fill:#FFFFFF;}
</style>
<path class="st0" d="M13.3,140.9c-6.2,0-11.3,5-11.3,11.3c0,3.3,2.1,8.1,4,11.3c1.3,2.1,4.5,7,7.2,7s6-4.9,7.2-7c2-3.3,4-8,4-11.3
	C24.6,145.9,19.5,140.9,13.3,140.9z"/>
<circle class="st1" cx="13.3" cy="152" r="3.5"/>
<path class="st2" d="M13.3,140.9c-6.2,0-11.3,5-11.3,11.3c0,3.3,2.1,8.1,4,11.3c1.3,2.1,4.5,7,7.2,7s6-4.9,7.2-7c2-3.3,4-8,4-11.3
	C24.6,145.9,19.5,140.9,13.3,140.9z"/>
<circle class="st3" cx="13.3" cy="152" r="3.5"/>
</svg>
