<?xml version="1.0" encoding="utf-8"?>
<!-- Generator: Adobe Illustrator 22.0.1, SVG Export Plug-In . SVG Version: 6.00 Build 0)  -->
<svg version="1.1" id="Calque_1" xmlns="http://www.w3.org/2000/svg" xmlns:xlink="http://www.w3.org/1999/xlink" x="0px" y="0px"
	 viewBox="0 0 23.6 183" style="enable-background:new 0 0 23.6 183;" xml:space="preserve">
<style type="text/css">
	.st0{display:none;fill:#EB5B5D;}
	.st1{display:none;fill:#FFFFFF;}
	.st2{display:none;fill:#61B987;}
	.st3{fill:#2DABE3;}
	.st4{fill:#FFFFFF;}
</style>
<path class="st0" d="M11.6,152.7c-6.2,0-11.3,5-11.3,11.3c0,3.3,2.1,8.1,4,11.3c1.3,2.1,4.5,7,7.2,7s6-4.9,7.2-7c2-3.3,4-8,4-11.3
	C22.9,157.7,17.8,152.7,11.6,152.7z"/>
<circle class="st1" cx="11.6" cy="163.8" r="3.5"/>
<path class="st2" d="M11.6,152.7c-6.2,0-11.3,5-11.3,11.3c0,3.3,2.1,8.1,4,11.3c1.3,2.1,4.5,7,7.2,7s6-4.9,7.2-7c2-3.3,4-8,4-11.3
	C22.9,157.7,17.8,152.7,11.6,152.7z"/>
<circle class="st1" cx="11.6" cy="163.8" r="3.5"/>
<path class="st3" d="M11.5,152.8c-6.2,0-11.2,5-11.2,11.2c0,3.3,2.1,8.1,4,11.3c1.3,2.1,4.5,7,7.2,7s6-4.9,7.2-7c2-3.3,4-8,4-11.3
	C22.8,157.8,17.7,152.8,11.5,152.8z"/>
<circle class="st4" cx="11.5" cy="163.9" r="3.5"/>
</svg>
