<?xml version="1.0" encoding="utf-8"?>
<!-- Generator: Adobe Illustrator 22.0.1, SVG Export Plug-In . SVG Version: 6.00 Build 0)  -->
<svg version="1.1" id="Calque_1" xmlns="http://www.w3.org/2000/svg" xmlns:xlink="http://www.w3.org/1999/xlink" x="0px" y="0px"
	 viewBox="0 0 2.4 15.6" style="enable-background:new 0 0 2.4 15.6;" xml:space="preserve">
<style type="text/css">
	.st0{display:none;fill:#EB5B5D;}
	.st1{display:none;fill:#FFFFFF;}
	.st2{display:none;fill:#61B987;}
	.st3{display:none;fill:#2DABE3;}
	.st4{fill:#FDC53C;}
	.st5{fill:#FFFFFF;}
</style>
<path class="st0" d="M-8-12.2c-6.2,0-11.3,5-11.3,11.3c0,3.3,2.1,8.1,4,11.3c1.3,2.1,4.5,7,7.2,7s6-4.9,7.2-7c2-3.3,4-8,4-11.3
	C3.3-7.2-1.8-12.2-8-12.2z"/>
<circle class="st1" cx="-8" cy="-1.1" r="3.5"/>
<path class="st2" d="M-8-12.2c-6.2,0-11.3,5-11.3,11.3c0,3.3,2.1,8.1,4,11.3c1.3,2.1,4.5,7,7.2,7s6-4.9,7.2-7c2-3.3,4-8,4-11.3
	C3.3-7.2-1.8-12.2-8-12.2z"/>
<circle class="st1" cx="-8" cy="-1.1" r="3.5"/>
<path class="st3" d="M-8.1-12.1c-6.2,0-11.2,5-11.2,11.2c0,3.3,2.1,8.1,4,11.3c1.3,2.1,4.5,7,7.2,7s6-4.9,7.2-7c2-3.3,4-8,4-11.3
	C3.2-7.1-1.9-12.1-8.1-12.1z"/>
<circle class="st1" cx="-8.1" cy="-1" r="3.5"/>
<path class="st4" d="M1.2,12.6c-0.6,0-1,0.5-1,1c0,0.3,0.2,0.8,0.4,1c0.1,0.2,0.4,0.7,0.7,0.7s0.6-0.5,0.7-0.7
	c0.2-0.3,0.4-0.7,0.4-1C2.3,13.1,1.8,12.6,1.2,12.6z"/>
<circle class="st5" cx="1.2" cy="13.7" r="0.3"/>
</svg>
